<?xml version="1.0" encoding="UTF-8" standalone="no"?>
<!DOCTYPE svg PUBLIC "-//W3C//DTD SVG 1.1//EN" "http://www.w3.org/Graphics/SVG/1.1/DTD/svg11.dtd">
<svg width="100%" height="100%" viewBox="0 0 36 37" version="1.1" xmlns="http://www.w3.org/2000/svg" xmlns:xlink="http://www.w3.org/1999/xlink" xml:space="preserve" xmlns:serif="http://www.serif.com/" style="fill-rule:evenodd;clip-rule:evenodd;stroke-linejoin:round;stroke-miterlimit:2;">
    <path d="M18,0C14.44,0 10.96,1.056 8,3.034C5.04,5.011 2.733,7.823 1.37,11.112C0.008,14.401 -0.349,18.02 0.346,21.512C1.04,25.003 2.755,28.211 5.272,30.728C7.789,33.245 10.997,34.96 14.488,35.654C17.98,36.349 21.599,35.992 24.888,34.63C28.177,33.267 30.989,30.96 32.967,28C34.944,25.04 36,21.56 36,18C36,13.226 34.104,8.648 30.728,5.272C27.352,1.896 22.774,0 18,0ZM18,33.231C14.988,33.231 12.043,32.337 9.538,30.664C7.034,28.99 5.081,26.612 3.929,23.829C2.776,21.046 2.474,17.983 3.062,15.029C3.65,12.074 5.1,9.36 7.23,7.23C9.36,5.1 12.074,3.65 15.029,3.062C17.983,2.474 21.046,2.776 23.829,3.929C26.612,5.081 28.99,7.034 30.664,9.538C32.337,12.043 33.231,14.988 33.231,18C33.231,22.039 31.626,25.914 28.77,28.77C25.914,31.626 22.04,33.231 18,33.231Z" style="fill:rgb(5,5,27);fill-rule:nonzero;"/>
    <path d="M10.787,17.64C10.916,17.77 11.069,17.873 11.237,17.943C11.406,18.013 11.587,18.049 11.77,18.049C11.953,18.049 12.134,18.013 12.302,17.943C12.471,17.873 12.624,17.77 12.753,17.64L16.007,14.386C16.618,13.766 16.991,12.95 17.06,12.082C17.128,11.213 16.888,10.349 16.381,9.64C15.875,8.932 15.135,8.425 14.291,8.209C13.447,7.993 12.554,8.082 11.77,8.46C10.984,8.059 10.08,7.953 9.223,8.162C8.366,8.371 7.612,8.88 7.099,9.598C6.586,10.316 6.347,11.194 6.427,12.073C6.507,12.951 6.899,13.772 7.533,14.386L10.787,17.64ZM9.485,11.077C9.569,10.989 9.67,10.919 9.782,10.871C9.894,10.823 10.014,10.798 10.136,10.798C10.258,10.798 10.378,10.823 10.49,10.871C10.602,10.919 10.703,10.989 10.787,11.077C10.916,11.207 11.069,11.31 11.237,11.38C11.406,11.45 11.587,11.486 11.77,11.486C11.953,11.486 12.134,11.45 12.302,11.38C12.471,11.31 12.624,11.207 12.753,11.077C12.838,10.991 12.939,10.922 13.051,10.875C13.163,10.829 13.283,10.805 13.404,10.805C13.525,10.805 13.645,10.829 13.756,10.875C13.868,10.922 13.969,10.991 14.054,11.077C14.142,11.161 14.212,11.262 14.26,11.374C14.308,11.486 14.333,11.606 14.333,11.727C14.333,11.849 14.308,11.97 14.26,12.081C14.212,12.193 14.142,12.294 14.054,12.378L11.77,14.705L9.485,12.461C9.397,12.377 9.327,12.276 9.279,12.165C9.232,12.053 9.207,11.932 9.207,11.811C9.207,11.689 9.232,11.569 9.279,11.457C9.327,11.345 9.397,11.244 9.485,11.16L9.485,11.077Z" style="fill:rgb(5,5,27);fill-rule:nonzero;"/>
    <path d="M23.248,17.64C23.377,17.77 23.53,17.873 23.699,17.943C23.868,18.013 24.049,18.049 24.232,18.049C24.414,18.049 24.595,18.013 24.764,17.943C24.933,17.873 25.086,17.77 25.215,17.64L28.468,14.386C29.08,13.766 29.453,12.95 29.521,12.082C29.59,11.213 29.35,10.349 28.843,9.64C28.337,8.932 27.596,8.425 26.753,8.209C25.909,7.993 25.016,8.082 24.232,8.46C23.446,8.059 22.542,7.953 21.685,8.162C20.828,8.371 20.074,8.88 19.561,9.598C19.047,10.316 18.809,11.194 18.889,12.073C18.968,12.951 19.361,13.772 19.995,14.386L23.248,17.64ZM21.947,11.077C22.031,10.989 22.132,10.919 22.244,10.871C22.356,10.823 22.476,10.798 22.598,10.798C22.719,10.798 22.84,10.823 22.952,10.871C23.063,10.919 23.164,10.989 23.248,11.077C23.377,11.207 23.53,11.31 23.699,11.38C23.868,11.45 24.049,11.486 24.232,11.486C24.414,11.486 24.595,11.45 24.764,11.38C24.933,11.31 25.086,11.207 25.215,11.077C25.3,10.991 25.401,10.922 25.513,10.875C25.624,10.829 25.744,10.805 25.865,10.805C25.986,10.805 26.106,10.829 26.218,10.875C26.33,10.922 26.431,10.991 26.516,11.077C26.604,11.161 26.674,11.262 26.722,11.374C26.77,11.486 26.794,11.606 26.794,11.727C26.794,11.849 26.77,11.97 26.722,12.081C26.674,12.193 26.604,12.294 26.516,12.378L24.232,14.705L21.947,12.461C21.859,12.377 21.789,12.276 21.741,12.165C21.693,12.053 21.669,11.932 21.669,11.811C21.669,11.689 21.693,11.569 21.741,11.457C21.789,11.345 21.859,11.244 21.947,11.16L21.947,11.077Z" style="fill:rgb(5,5,27);fill-rule:nonzero;"/>
    <path d="M27.692,19.385C27.325,19.385 26.973,19.53 26.713,19.79C26.453,20.05 26.308,20.402 26.308,20.769C26.308,24.591 22.583,27.692 18,27.692C13.417,27.692 9.692,24.591 9.692,20.769C9.692,20.402 9.546,20.05 9.287,19.79C9.027,19.53 8.675,19.385 8.307,19.385C7.94,19.385 7.588,19.53 7.328,19.79C7.069,20.05 6.923,20.402 6.923,20.769C6.923,26.114 11.894,30.461 18,30.461C24.106,30.461 29.077,26.114 29.077,20.769C29.077,20.402 28.931,20.05 28.671,19.79C28.412,19.53 28.059,19.385 27.692,19.385Z" style="fill:rgb(5,5,27);fill-rule:nonzero;"/>
</svg>
